<svg xmlns="http://www.w3.org/2000/svg" viewBox="0 0 24 24" width="16" height="16" aria-hidden="true">
  <rect width="24" height="24" rx="5" fill="#181717"/>
  <!-- GitHub mark (Simple Icons) -->
  <path fill="#fff" d="M12 .7C6.9.7 2.7 4.9 2.7 10c0 4 2.6 7.4 6.2 8.6.5.1.7-.2.7-.5v-1.8c-2.5.5-3-.9-3-.9-.4-1-.9-1.3-.9-1.3-.8-.5.1-.5.1-.5.9.1 1.4.9 1.4.9.8 1.4 2.2 1 2.7.8.1-.6.3-1 .6-1.2-2-.2-4.1-1-4.1-4.4 0-1 .4-1.8.9-2.5-.1-.2-.4-1.1.1-2.3 0 0 .8-.3 2.5.9.7-.2 1.5-.3 2.3-.3.8 0 1.6.1 2.3.3 1.7-1.1 2.5-.9 2.5-.9.5 1.2.2 2.1.1 2.3.6.6.9 1.5.9 2.5 0 3.4-2.1 4.2-4.1 4.4.3.3.6.9.6 1.8v2.6c0 .3.2.6.7.5 3.6-1.2 6.2-4.6 6.2-8.6C21.3 4.9 17.1.7 12 .7Z"/>
</svg>
